# xmcd
#
# Track frame offsets:
#	150
#	17095
#	32635
#	46477
#	59330
#	72767
#	88590
#	99612
#	117665
#
# Disc length: 1762 seconds
# Revision: 0
# Processed by: cddbd v1.5.2PL0 Copyright (c) Steve Scherf et al.
# Submitted via: dBpowerAMP V12.0
#
DISCID=7706e009
DTITLE=The Judds - Christmas Time With The Judds
DYEAR=1987
DGENRE=Christmas
TTITLE0=Winter Wonderland
TTITLE1=Beautiful Star Of Bethlehem
TTITLE2=Who Is This Babe
TTITLE3=Santa Claus Is Comin' To Town
TTITLE4=Silver Bells
TTITLE5=What Child Is This?
TTITLE6=Away In A Manger
TTITLE7=Oh Holy Night
TTITLE8=Silent Night
EXTD=
EXTT0=
EXTT1=
EXTT2=
EXTT3=
EXTT4=
EXTT5=
EXTT6=
EXTT7=
EXTT8=
PLAYORDER=
